<svg height="400" viewBox="-130 -130 260 260" width="400" xmlns="http://www.w3.org/2000/svg" xmlns:xlink="http://www.w3.org/1999/xlink"><radialGradient id="a" cx="0" cy="0" gradientUnits="userSpaceOnUse" r="100"><stop offset="0" stop-color="#fff8d8" stop-opacity=".95"/><stop offset=".12" stop-color="#ffd96a" stop-opacity=".65"/><stop offset=".32" stop-color="#fecc00" stop-opacity=".3"/><stop offset=".65" stop-color="#fecc00" stop-opacity=".1"/><stop offset="1" stop-color="#fecc00" stop-opacity="0"/></radialGradient><radialGradient id="b" cx="0" cy="0" gradientUnits="userSpaceOnUse" r="14.17"><stop offset="0" stop-color="#ffeba9"/><stop offset=".5" stop-color="#fecc00"/><stop offset="1" stop-color="#f8ae00"/></radialGradient><radialGradient id="c" cx=".5" cy=".5" fx=".35" fy=".35" r=".55" gradientUnits="objectBoundingBox"><stop offset="0" stop-color="#ef7b5a"/><stop offset=".5" stop-color="#e30613"/><stop offset="1" stop-color="#cb181a"/></radialGradient><radialGradient id="d" cx=".5" cy=".5" fx=".35" fy=".35" r=".55" gradientUnits="objectBoundingBox"><stop offset="0" stop-color="#6cbb83"/><stop offset=".5" stop-color="#009640"/><stop offset="1" stop-color="#00863e"/></radialGradient><radialGradient id="e" cx=".5" cy=".5" fx=".35" fy=".35" r=".55" gradientUnits="objectBoundingBox"><stop offset="0" stop-color="#44afcd"/><stop offset=".5" stop-color="#008eb4"/><stop offset="1" stop-color="#00747d"/></radialGradient><circle fill="url(#a)" r="100"/><g fill="none" opacity=".5"><circle r="105.03" stroke="#4b8b9e" stroke-dasharray="3 3"/><circle r="71.03" stroke="#66b32e" stroke-dasharray="3 3"/><circle r="43.35" stroke="#c71617" stroke-dasharray="2 2"/></g><g fill="url(#e)"><circle cy="-105.45" r="9.92"/><circle cx="82.44" cy="-65.74" r="9.92"/><circle cx="102.8" cy="23.46" r="9.92"/><circle cx="45.75" cy="95" r="9.92"/><circle cx="-45.75" cy="95" r="9.92"/><circle cx="-102.8" cy="23.46" r="9.92"/><circle cx="-82.44" cy="-65.74" r="9.92"/></g><g fill="url(#d)"><circle cy="-71.42" r="7.09"/><circle cx="67.93" cy="-22.07" r="7.09"/><circle cx="41.98" cy="57.78" r="7.09"/><circle cx="-41.98" cy="57.78" r="7.09"/><circle cx="-67.93" cy="-22.07" r="7.09"/></g><g fill="url(#c)"><circle cy="-43.36" r="4.25"/><circle cx="37.55" cy="21.68" r="4.25"/><circle cx="-37.55" cy="21.68" r="4.25"/></g><circle fill="url(#b)" r="14.17"/></svg>